<svg width="277" height="278" viewBox="0 0 277 278" fill="none" xmlns="http://www.w3.org/2000/svg">
<g clip-path="url(#clip0_83479_3054)">
<path d="M156.704 54.4843C157.605 53.5831 158.219 52.4351 158.467 51.1854C158.716 49.9356 158.589 48.6402 158.101 47.4629C157.614 46.2855 156.788 45.2791 155.729 44.5708C154.67 43.8624 153.424 43.484 152.15 43.4833H135.875C134.615 43.4828 133.382 43.1126 132.33 42.4187C131.278 41.7247 130.453 40.7374 129.956 39.5789L122.092 21.2182C121.596 20.0591 120.77 19.0711 119.718 18.3769C118.665 17.6826 117.432 17.3125 116.172 17.3125C114.911 17.3125 113.678 17.6826 112.625 18.3769C111.573 19.0711 110.747 20.0591 110.251 21.2182L102.385 39.5789C101.889 40.7377 101.064 41.7253 100.011 42.4194C98.9591 43.1134 97.7262 43.4834 96.4657 43.4833H80.193C78.9186 43.4837 77.6729 43.8619 76.6134 44.5701C75.5539 45.2782 74.7282 46.2846 74.2405 47.462C73.7529 48.6394 73.6252 49.9349 73.8737 51.1848C74.1222 52.4348 74.7357 53.583 75.6366 54.4843L87.8264 66.6783C88.6135 67.4651 89.1834 68.4423 89.4804 69.5149C89.7774 70.5874 89.7915 71.7186 89.5213 72.7982L83.7603 95.8484C83.454 97.0734 83.5143 98.3613 83.9337 99.5522C84.3532 100.743 85.1134 101.785 86.1197 102.547C87.1261 103.31 88.3344 103.76 89.5944 103.841C90.8544 103.923 92.1106 103.633 93.207 103.006L112.975 91.7053C113.948 91.1491 115.05 90.8565 116.171 90.8565C117.291 90.8565 118.393 91.1491 119.366 91.7053L139.136 103.006C140.233 103.633 141.489 103.923 142.749 103.841C144.008 103.76 145.217 103.309 146.223 102.547C147.229 101.784 147.989 100.743 148.408 99.5519C148.827 98.361 148.887 97.0732 148.581 95.8484L142.82 72.7982C142.55 71.7186 142.564 70.5875 142.861 69.5151C143.158 68.4426 143.728 67.4653 144.515 66.6783L156.704 54.4843Z" fill="white"/>
<path d="M12.6172 104.982L8.01006 123.423C7.76468 124.403 7.81265 125.433 8.14802 126.386C8.48338 127.339 9.09135 128.172 9.89634 128.782C10.7013 129.392 11.6679 129.752 12.6758 129.817C13.6836 129.882 14.6885 129.65 15.5653 129.148L31.3794 120.107C32.1584 119.663 33.0397 119.429 33.9366 119.429C34.8334 119.429 35.7148 119.663 36.4937 120.107L52.31 129.148C53.1867 129.65 54.1914 129.882 55.1992 129.817C56.207 129.752 57.1734 129.392 57.9783 128.782C58.7831 128.172 59.3909 127.338 59.726 126.386C60.0611 125.433 60.1088 124.403 59.8631 123.423L55.256 104.982C55.0401 104.119 55.0514 103.214 55.2888 102.356C55.5261 101.498 55.9815 100.716 56.6106 100.087L66.3637 90.3304C67.0844 89.6095 67.5752 88.6912 67.774 87.6915C67.9729 86.6917 67.871 85.6554 67.481 84.7136C67.0911 83.7718 66.4307 82.9667 65.5834 82.4002C64.736 81.8336 63.7397 81.5309 62.7203 81.5305H49.7021C48.6932 81.5303 47.7065 81.2342 46.8643 80.6787C46.0221 80.1233 45.3614 79.3329 44.964 78.4056L38.6726 63.7185C38.2758 62.7912 37.6154 62.0008 36.7735 61.4453C35.9316 60.8899 34.9452 60.5938 33.9366 60.5938C32.9279 60.5938 31.9415 60.8899 31.0996 61.4453C30.2577 62.0008 29.5974 62.7912 29.2006 63.7185L22.9091 78.4059C22.5117 79.3332 21.851 80.1236 21.0088 80.6791C20.1666 81.2345 19.1799 81.5307 18.171 81.5308H5.1528C4.13346 81.5313 3.13714 81.8339 2.28977 82.4005C1.44239 82.9671 0.782009 83.7722 0.392083 84.714C0.00215636 85.6558 -0.0998057 86.6921 0.0990815 87.6918C0.297969 88.6915 0.788778 89.6099 1.50947 90.3308L11.2626 100.087C11.8916 100.717 12.3469 101.499 12.5843 102.356C12.8216 103.214 12.833 104.119 12.6172 104.982Z" fill="white"/>
<path d="M227.783 81.5305H214.764C213.756 81.5306 212.769 81.2345 211.927 80.679C211.085 80.1235 210.425 79.333 210.028 78.4056L203.735 63.7185C203.338 62.7912 202.678 62.0008 201.836 61.4453C200.994 60.8899 200.008 60.5938 198.999 60.5938C197.99 60.5938 197.004 60.8899 196.162 61.4453C195.32 62.0008 194.66 62.7912 194.263 63.7185L187.969 78.4063C187.573 79.3334 186.913 80.1237 186.072 80.6792C185.23 81.2347 184.244 81.531 183.236 81.5312H170.217C169.198 81.5312 168.201 81.8336 167.354 82.4C166.506 82.9664 165.845 83.7715 165.455 84.7134C165.065 85.6553 164.963 86.6917 165.161 87.6916C165.36 88.6916 165.851 89.6101 166.572 90.3311L176.325 100.087C176.954 100.717 177.41 101.499 177.647 102.357C177.885 103.215 177.896 104.119 177.68 104.983L173.07 123.424C172.825 124.404 172.874 125.434 173.209 126.387C173.545 127.339 174.153 128.172 174.958 128.782C175.763 129.392 176.73 129.752 177.738 129.817C178.746 129.883 179.751 129.65 180.628 129.149L196.442 120.108C197.221 119.664 198.102 119.43 198.999 119.43C199.896 119.43 200.777 119.664 201.556 120.108L217.37 129.149C218.247 129.65 219.252 129.882 220.26 129.817C221.268 129.752 222.234 129.392 223.039 128.782C223.844 128.172 224.453 127.339 224.788 126.387C225.124 125.434 225.172 124.404 224.927 123.424L220.318 104.983C220.102 104.119 220.113 103.215 220.351 102.357C220.588 101.499 221.044 100.717 221.673 100.087L231.426 90.3304C232.147 89.6095 232.638 88.6912 232.837 87.6914C233.035 86.6917 232.933 85.6554 232.543 84.7136C232.154 83.7718 231.493 82.9667 230.646 82.4001C229.798 81.8336 228.802 81.5309 227.783 81.5305Z" fill="white"/>
<path d="M41.2391 171.819H55.5939C57.8855 171.819 60.0832 172.73 61.7036 174.35C63.324 175.97 64.2343 178.168 64.2343 180.46V248.15C64.2343 250.442 63.3239 252.64 61.7033 254.261C60.0827 255.881 57.8848 256.792 55.5929 256.792H41.2391C38.9473 256.792 36.7493 255.881 35.1287 254.261C33.5081 252.64 32.5977 250.442 32.5977 248.15V180.461C32.5976 179.326 32.8212 178.202 33.2554 177.154C33.6897 176.105 34.3262 175.153 35.1286 174.35C35.9311 173.548 36.8837 172.911 37.9321 172.477C38.9806 172.043 40.1043 171.819 41.2391 171.819Z" fill="white"/>
<path d="M150.02 181.26H126.993L142.401 135.123C142.814 133.837 143.018 132.492 143.008 131.141C143.029 128.518 142.244 125.951 140.756 123.79C139.269 121.629 137.153 119.977 134.695 119.06C132.237 118.143 129.556 118.005 127.017 118.664C124.477 119.323 122.202 120.747 120.501 122.744L74.9117 176.028C73.5636 177.587 72.825 179.582 72.8321 181.643C72.8807 192.656 72.8892 229.462 72.8913 243.292C72.8917 244.895 73.3399 246.466 74.1853 247.827C75.0307 249.189 76.2396 250.287 77.6759 250.999L79.2968 251.81C85.8963 255.111 93.1739 256.83 100.553 256.829H140.584C144.802 256.804 148.892 255.379 152.213 252.779C155.534 250.178 157.897 246.549 158.934 242.461L168.37 204.719C169.062 201.934 169.11 199.027 168.511 196.219C167.912 193.412 166.682 190.778 164.913 188.517C163.144 186.256 160.884 184.428 158.304 183.17C155.723 181.913 152.89 181.26 150.02 181.26Z" fill="white"/>
</g>
<defs>
<clipPath id="clip0_83479_3054">
<rect width="277" height="278" fill="white"/>
</clipPath>
</defs>
</svg>
