<svg width="100" height="18" viewBox="0 0 100 18" fill="none" xmlns="http://www.w3.org/2000/svg">
<rect width="18" height="18" fill="#03B57A"/>
<g clip-path="url(#clip0_83479_2799)">
<path d="M8.11778 4.53182C7.72061 5.71 7.32344 6.88819 7.24531 7.13656L7.09556 7.60146L4.23723 7.6142L1.37891 7.63331L3.63822 9.21908C4.88182 10.0916 5.91056 10.8431 5.93009 10.8813C5.94311 10.9258 5.5785 12.104 5.1097 13.4987C4.64091 14.8935 4.26979 16.0398 4.28281 16.0525C4.30234 16.078 7.70108 13.7025 13.4633 9.64577L16.3151 7.63331L13.4568 7.6142L10.5985 7.60146L10.4487 7.13656C10.2339 6.46786 8.86655 2.41109 8.85353 2.39836C8.84701 2.38562 8.51495 3.34727 8.11778 4.53182Z" fill="#FEFEFE"/>
<path d="M10.4247 12.5041C9.60435 12.7079 8.92721 12.8863 8.91419 12.899C8.90117 12.9117 9.90386 13.6441 11.1475 14.523C12.3911 15.4082 13.4133 16.1151 13.4263 16.1024C13.4393 16.096 13.1528 15.1917 12.7882 14.1026C12.2674 12.5487 12.0981 12.122 12.0134 12.1284C11.9548 12.1284 11.2386 12.3003 10.4247 12.5041Z" fill="#FEFEFE"/>
</g>
<rect width="18" height="18" transform="translate(20.3125)" fill="#03B57A"/>
<g clip-path="url(#clip1_83479_2799)">
<path d="M28.4342 4.53182C28.037 5.71 27.6398 6.88819 27.5617 7.13656L27.412 7.60146L24.5536 7.6142L21.6953 7.63331L23.9546 9.21908C25.1982 10.0916 26.227 10.8431 26.2465 10.8813C26.2595 10.9258 25.8949 12.104 25.4261 13.4987C24.9573 14.8935 24.5862 16.0398 24.5992 16.0525C24.6187 16.078 28.0175 13.7025 33.7797 9.64577L36.6315 7.63331L33.7732 7.6142L30.9149 7.60146L30.7651 7.13656C30.5503 6.46786 29.183 2.41109 29.1699 2.39836C29.1634 2.38562 28.8314 3.34727 28.4342 4.53182Z" fill="#FEFEFE"/>
<path d="M30.7411 12.5041C29.9208 12.7079 29.2436 12.8863 29.2306 12.899C29.2176 12.9117 30.2203 13.6441 31.4639 14.523C32.7075 15.4082 33.7297 16.1151 33.7427 16.1024C33.7557 16.096 33.4693 15.1917 33.1046 14.1026C32.5838 12.5487 32.4145 12.122 32.3298 12.1284C32.2712 12.1284 31.555 12.3003 30.7411 12.5041Z" fill="#FEFEFE"/>
</g>
<rect width="18" height="18" transform="translate(40.625)" fill="#03B57A"/>
<g clip-path="url(#clip2_83479_2799)">
<path d="M48.7428 4.53182C48.3456 5.71 47.9484 6.88819 47.8703 7.13656L47.7206 7.60146L44.8622 7.6142L42.0039 7.63331L44.2632 9.21908C45.5068 10.0916 46.5356 10.8431 46.5551 10.8813C46.5681 10.9258 46.2035 12.104 45.7347 13.4987C45.2659 14.8935 44.8948 16.0398 44.9078 16.0525C44.9273 16.078 48.3261 13.7025 54.0883 9.64577L56.9401 7.63331L54.0818 7.6142L51.2235 7.60146L51.0737 7.13656C50.8589 6.46786 49.4915 2.41109 49.4785 2.39836C49.472 2.38562 49.14 3.34727 48.7428 4.53182Z" fill="#FEFEFE"/>
<path d="M51.0497 12.5041C50.2294 12.7079 49.5522 12.8863 49.5392 12.899C49.5262 12.9117 50.5289 13.6441 51.7725 14.523C53.0161 15.4082 54.0383 16.1151 54.0513 16.1024C54.0643 16.096 53.7778 15.1917 53.4132 14.1026C52.8924 12.5487 52.7231 12.122 52.6384 12.1284C52.5798 12.1284 51.8636 12.3003 51.0497 12.5041Z" fill="#FEFEFE"/>
</g>
<rect width="18" height="18" transform="translate(60.9336)" fill="#03B57A"/>
<g clip-path="url(#clip3_83479_2799)">
<path d="M69.0475 4.53182C68.6503 5.71 68.2531 6.88819 68.175 7.13656L68.0252 7.60146L65.1669 7.6142L62.3086 7.63331L64.5679 9.21908C65.8115 10.0916 66.8402 10.8431 66.8598 10.8813C66.8728 10.9258 66.5082 12.104 66.0394 13.4987C65.5706 14.8935 65.1995 16.0398 65.2125 16.0525C65.232 16.078 68.6308 13.7025 74.393 9.64577L77.2448 7.63331L74.3865 7.6142L71.5282 7.60146L71.3784 7.13656C71.1635 6.46786 69.7962 2.41109 69.7832 2.39836C69.7767 2.38562 69.4446 3.34727 69.0475 4.53182Z" fill="#FEFEFE"/>
<path d="M71.3544 12.5041C70.534 12.7079 69.8569 12.8863 69.8439 12.899C69.8309 12.9117 70.8335 13.6441 72.0771 14.523C73.3207 15.4082 74.343 16.1151 74.356 16.1024C74.369 16.096 74.0825 15.1917 73.7179 14.1026C73.197 12.5487 73.0278 12.122 72.9431 12.1284C72.8845 12.1284 72.1683 12.3003 71.3544 12.5041Z" fill="#FEFEFE"/>
</g>
<rect width="18" height="18" transform="translate(81.2461)" fill="#03B57A"/>
<g clip-path="url(#clip4_83479_2799)">
<path d="M89.3639 4.53182C88.9667 5.71 88.5695 6.88819 88.4914 7.13656L88.3417 7.60146L85.4833 7.6142L82.625 7.63331L84.8843 9.21908C86.1279 10.0916 87.1567 10.8431 87.1762 10.8813C87.1892 10.9258 86.8246 12.104 86.3558 13.4987C85.887 14.8935 85.5159 16.0398 85.5289 16.0525C85.5484 16.078 88.9472 13.7025 94.7094 9.64577L97.5612 7.63331L94.7029 7.6142L91.8446 7.60146L91.6948 7.13656C91.4799 6.46786 90.1126 2.41109 90.0996 2.39836C90.0931 2.38562 89.761 3.34727 89.3639 4.53182Z" fill="#FEFEFE"/>
<path d="M91.6708 12.5041C90.8504 12.7079 90.1733 12.8863 90.1603 12.899C90.1473 12.9117 91.15 13.6441 92.3936 14.523C93.6372 15.4082 94.6594 16.1151 94.6724 16.1024C94.6854 16.096 94.3989 15.1917 94.0343 14.1026C93.5134 12.5487 93.3442 12.122 93.2595 12.1284C93.2009 12.1284 92.4847 12.3003 91.6708 12.5041Z" fill="#FEFEFE"/>
</g>
<defs>
<clipPath id="clip0_83479_2799">
<rect width="15.0404" height="13.8834" fill="white" transform="translate(1.32812 2.31445)"/>
</clipPath>
<clipPath id="clip1_83479_2799">
<rect width="15.0404" height="13.8834" fill="white" transform="translate(21.6445 2.31445)"/>
</clipPath>
<clipPath id="clip2_83479_2799">
<rect width="15.0404" height="13.8834" fill="white" transform="translate(41.9531 2.31445)"/>
</clipPath>
<clipPath id="clip3_83479_2799">
<rect width="15.0404" height="13.8834" fill="white" transform="translate(62.2617 2.31445)"/>
</clipPath>
<clipPath id="clip4_83479_2799">
<rect width="15.0404" height="13.8834" fill="white" transform="translate(82.5742 2.31445)"/>
</clipPath>
</defs>
</svg>
